<?xml version="1.0" encoding="utf-8" standalone="no"?>
<!DOCTYPE svg PUBLIC "-//W3C//DTD SVG 1.1//EN"
  "http://www.w3.org/Graphics/SVG/1.1/DTD/svg11.dtd">
<svg xmlns:xlink="http://www.w3.org/1999/xlink" width="460.8pt" height="345.6pt" viewBox="0 0 460.8 345.6" xmlns="http://www.w3.org/2000/svg" version="1.1">
 <metadata>
  <rdf:RDF xmlns:dc="http://purl.org/dc/elements/1.1/" xmlns:cc="http://creativecommons.org/ns#" xmlns:rdf="http://www.w3.org/1999/02/22-rdf-syntax-ns#">
   <cc:Work>
    <dc:type rdf:resource="http://purl.org/dc/dcmitype/StillImage"/>
    <dc:date>2024-01-11T14:41:56.877330</dc:date>
    <dc:format>image/svg+xml</dc:format>
    <dc:creator>
     <cc:Agent>
      <dc:title>Matplotlib v3.5.2, https://matplotlib.org/</dc:title>
     </cc:Agent>
    </dc:creator>
   </cc:Work>
  </rdf:RDF>
 </metadata>
 <defs>
  <style type="text/css">*{stroke-linejoin: round; stroke-linecap: butt}</style>
 </defs>
 <g id="figure_1">
  <g id="patch_1">
   <path d="M 0 345.6 
L 460.8 345.6 
L 460.8 0 
L 0 0 
z
" style="fill: #ffffff"/>
  </g>
  <g id="axes_1">
   <g id="patch_2">
    <path d="M 57.6 307.584 
L 414.72 307.584 
L 414.72 41.472 
L 57.6 41.472 
z
" style="fill: #ffffff"/>
   </g>
   <g id="matplotlib.axis_1">
    <g id="xtick_1">
     <g id="line2d_1">
      <path d="M 146.88 307.584 
L 146.88 41.472 
" clip-path="url(#p8736aa6f1d)" style="fill: none; stroke: #b0b0b0; stroke-width: 0.8; stroke-linecap: square"/>
     </g>
     <g id="line2d_2">
      <defs>
       <path id="m6fd3ba0ccf" d="M 0 0 
L 0 3.5 
" style="stroke: #000000; stroke-width: 0.8"/>
      </defs>
      <g>
       <use xlink:href="#m6fd3ba0ccf" x="146.88" y="307.584" style="stroke: #000000; stroke-width: 0.8"/>
      </g>
     </g>
     <g id="text_1">
      <!-- Invitro -->
      <g transform="translate(130.925312 322.182437)scale(0.1 -0.1)">
       <defs>
        <path id="DejaVuSans-49" d="M 628 4666 
L 1259 4666 
L 1259 0 
L 628 0 
L 628 4666 
z
" transform="scale(0.015625)"/>
        <path id="DejaVuSans-6e" d="M 3513 2113 
L 3513 0 
L 2938 0 
L 2938 2094 
Q 2938 2591 2744 2837 
Q 2550 3084 2163 3084 
Q 1697 3084 1428 2787 
Q 1159 2491 1159 1978 
L 1159 0 
L 581 0 
L 581 3500 
L 1159 3500 
L 1159 2956 
Q 1366 3272 1645 3428 
Q 1925 3584 2291 3584 
Q 2894 3584 3203 3211 
Q 3513 2838 3513 2113 
z
" transform="scale(0.015625)"/>
        <path id="DejaVuSans-76" d="M 191 3500 
L 800 3500 
L 1894 563 
L 2988 3500 
L 3597 3500 
L 2284 0 
L 1503 0 
L 191 3500 
z
" transform="scale(0.015625)"/>
        <path id="DejaVuSans-69" d="M 603 3500 
L 1178 3500 
L 1178 0 
L 603 0 
L 603 3500 
z
M 603 4863 
L 1178 4863 
L 1178 4134 
L 603 4134 
L 603 4863 
z
" transform="scale(0.015625)"/>
        <path id="DejaVuSans-74" d="M 1172 4494 
L 1172 3500 
L 2356 3500 
L 2356 3053 
L 1172 3053 
L 1172 1153 
Q 1172 725 1289 603 
Q 1406 481 1766 481 
L 2356 481 
L 2356 0 
L 1766 0 
Q 1100 0 847 248 
Q 594 497 594 1153 
L 594 3053 
L 172 3053 
L 172 3500 
L 594 3500 
L 594 4494 
L 1172 4494 
z
" transform="scale(0.015625)"/>
        <path id="DejaVuSans-72" d="M 2631 2963 
Q 2534 3019 2420 3045 
Q 2306 3072 2169 3072 
Q 1681 3072 1420 2755 
Q 1159 2438 1159 1844 
L 1159 0 
L 581 0 
L 581 3500 
L 1159 3500 
L 1159 2956 
Q 1341 3275 1631 3429 
Q 1922 3584 2338 3584 
Q 2397 3584 2469 3576 
Q 2541 3569 2628 3553 
L 2631 2963 
z
" transform="scale(0.015625)"/>
        <path id="DejaVuSans-6f" d="M 1959 3097 
Q 1497 3097 1228 2736 
Q 959 2375 959 1747 
Q 959 1119 1226 758 
Q 1494 397 1959 397 
Q 2419 397 2687 759 
Q 2956 1122 2956 1747 
Q 2956 2369 2687 2733 
Q 2419 3097 1959 3097 
z
M 1959 3584 
Q 2709 3584 3137 3096 
Q 3566 2609 3566 1747 
Q 3566 888 3137 398 
Q 2709 -91 1959 -91 
Q 1206 -91 779 398 
Q 353 888 353 1747 
Q 353 2609 779 3096 
Q 1206 3584 1959 3584 
z
" transform="scale(0.015625)"/>
       </defs>
       <use xlink:href="#DejaVuSans-49"/>
       <use xlink:href="#DejaVuSans-6e" x="29.492188"/>
       <use xlink:href="#DejaVuSans-76" x="92.871094"/>
       <use xlink:href="#DejaVuSans-69" x="152.050781"/>
       <use xlink:href="#DejaVuSans-74" x="179.833984"/>
       <use xlink:href="#DejaVuSans-72" x="219.042969"/>
       <use xlink:href="#DejaVuSans-6f" x="257.90625"/>
      </g>
     </g>
    </g>
    <g id="xtick_2">
     <g id="line2d_3">
      <path d="M 325.44 307.584 
L 325.44 41.472 
" clip-path="url(#p8736aa6f1d)" style="fill: none; stroke: #b0b0b0; stroke-width: 0.8; stroke-linecap: square"/>
     </g>
     <g id="line2d_4">
      <g>
       <use xlink:href="#m6fd3ba0ccf" x="325.44" y="307.584" style="stroke: #000000; stroke-width: 0.8"/>
      </g>
     </g>
     <g id="text_2">
      <!-- Invivo -->
      <g transform="translate(310.429062 322.182437)scale(0.1 -0.1)">
       <use xlink:href="#DejaVuSans-49"/>
       <use xlink:href="#DejaVuSans-6e" x="29.492188"/>
       <use xlink:href="#DejaVuSans-76" x="92.871094"/>
       <use xlink:href="#DejaVuSans-69" x="152.050781"/>
       <use xlink:href="#DejaVuSans-76" x="179.833984"/>
       <use xlink:href="#DejaVuSans-6f" x="239.013672"/>
      </g>
     </g>
    </g>
    <g id="text_3">
     <!-- Samples -->
     <g transform="translate(214.806875 335.860562)scale(0.1 -0.1)">
      <defs>
       <path id="DejaVuSans-53" d="M 3425 4513 
L 3425 3897 
Q 3066 4069 2747 4153 
Q 2428 4238 2131 4238 
Q 1616 4238 1336 4038 
Q 1056 3838 1056 3469 
Q 1056 3159 1242 3001 
Q 1428 2844 1947 2747 
L 2328 2669 
Q 3034 2534 3370 2195 
Q 3706 1856 3706 1288 
Q 3706 609 3251 259 
Q 2797 -91 1919 -91 
Q 1588 -91 1214 -16 
Q 841 59 441 206 
L 441 856 
Q 825 641 1194 531 
Q 1563 422 1919 422 
Q 2459 422 2753 634 
Q 3047 847 3047 1241 
Q 3047 1584 2836 1778 
Q 2625 1972 2144 2069 
L 1759 2144 
Q 1053 2284 737 2584 
Q 422 2884 422 3419 
Q 422 4038 858 4394 
Q 1294 4750 2059 4750 
Q 2388 4750 2728 4690 
Q 3069 4631 3425 4513 
z
" transform="scale(0.015625)"/>
       <path id="DejaVuSans-61" d="M 2194 1759 
Q 1497 1759 1228 1600 
Q 959 1441 959 1056 
Q 959 750 1161 570 
Q 1363 391 1709 391 
Q 2188 391 2477 730 
Q 2766 1069 2766 1631 
L 2766 1759 
L 2194 1759 
z
M 3341 1997 
L 3341 0 
L 2766 0 
L 2766 531 
Q 2569 213 2275 61 
Q 1981 -91 1556 -91 
Q 1019 -91 701 211 
Q 384 513 384 1019 
Q 384 1609 779 1909 
Q 1175 2209 1959 2209 
L 2766 2209 
L 2766 2266 
Q 2766 2663 2505 2880 
Q 2244 3097 1772 3097 
Q 1472 3097 1187 3025 
Q 903 2953 641 2809 
L 641 3341 
Q 956 3463 1253 3523 
Q 1550 3584 1831 3584 
Q 2591 3584 2966 3190 
Q 3341 2797 3341 1997 
z
" transform="scale(0.015625)"/>
       <path id="DejaVuSans-6d" d="M 3328 2828 
Q 3544 3216 3844 3400 
Q 4144 3584 4550 3584 
Q 5097 3584 5394 3201 
Q 5691 2819 5691 2113 
L 5691 0 
L 5113 0 
L 5113 2094 
Q 5113 2597 4934 2840 
Q 4756 3084 4391 3084 
Q 3944 3084 3684 2787 
Q 3425 2491 3425 1978 
L 3425 0 
L 2847 0 
L 2847 2094 
Q 2847 2600 2669 2842 
Q 2491 3084 2119 3084 
Q 1678 3084 1418 2786 
Q 1159 2488 1159 1978 
L 1159 0 
L 581 0 
L 581 3500 
L 1159 3500 
L 1159 2956 
Q 1356 3278 1631 3431 
Q 1906 3584 2284 3584 
Q 2666 3584 2933 3390 
Q 3200 3197 3328 2828 
z
" transform="scale(0.015625)"/>
       <path id="DejaVuSans-70" d="M 1159 525 
L 1159 -1331 
L 581 -1331 
L 581 3500 
L 1159 3500 
L 1159 2969 
Q 1341 3281 1617 3432 
Q 1894 3584 2278 3584 
Q 2916 3584 3314 3078 
Q 3713 2572 3713 1747 
Q 3713 922 3314 415 
Q 2916 -91 2278 -91 
Q 1894 -91 1617 61 
Q 1341 213 1159 525 
z
M 3116 1747 
Q 3116 2381 2855 2742 
Q 2594 3103 2138 3103 
Q 1681 3103 1420 2742 
Q 1159 2381 1159 1747 
Q 1159 1113 1420 752 
Q 1681 391 2138 391 
Q 2594 391 2855 752 
Q 3116 1113 3116 1747 
z
" transform="scale(0.015625)"/>
       <path id="DejaVuSans-6c" d="M 603 4863 
L 1178 4863 
L 1178 0 
L 603 0 
L 603 4863 
z
" transform="scale(0.015625)"/>
       <path id="DejaVuSans-65" d="M 3597 1894 
L 3597 1613 
L 953 1613 
Q 991 1019 1311 708 
Q 1631 397 2203 397 
Q 2534 397 2845 478 
Q 3156 559 3463 722 
L 3463 178 
Q 3153 47 2828 -22 
Q 2503 -91 2169 -91 
Q 1331 -91 842 396 
Q 353 884 353 1716 
Q 353 2575 817 3079 
Q 1281 3584 2069 3584 
Q 2775 3584 3186 3129 
Q 3597 2675 3597 1894 
z
M 3022 2063 
Q 3016 2534 2758 2815 
Q 2500 3097 2075 3097 
Q 1594 3097 1305 2825 
Q 1016 2553 972 2059 
L 3022 2063 
z
" transform="scale(0.015625)"/>
       <path id="DejaVuSans-73" d="M 2834 3397 
L 2834 2853 
Q 2591 2978 2328 3040 
Q 2066 3103 1784 3103 
Q 1356 3103 1142 2972 
Q 928 2841 928 2578 
Q 928 2378 1081 2264 
Q 1234 2150 1697 2047 
L 1894 2003 
Q 2506 1872 2764 1633 
Q 3022 1394 3022 966 
Q 3022 478 2636 193 
Q 2250 -91 1575 -91 
Q 1294 -91 989 -36 
Q 684 19 347 128 
L 347 722 
Q 666 556 975 473 
Q 1284 391 1588 391 
Q 1994 391 2212 530 
Q 2431 669 2431 922 
Q 2431 1156 2273 1281 
Q 2116 1406 1581 1522 
L 1381 1569 
Q 847 1681 609 1914 
Q 372 2147 372 2553 
Q 372 3047 722 3315 
Q 1072 3584 1716 3584 
Q 2034 3584 2315 3537 
Q 2597 3491 2834 3397 
z
" transform="scale(0.015625)"/>
      </defs>
      <use xlink:href="#DejaVuSans-53"/>
      <use xlink:href="#DejaVuSans-61" x="63.476562"/>
      <use xlink:href="#DejaVuSans-6d" x="124.755859"/>
      <use xlink:href="#DejaVuSans-70" x="222.167969"/>
      <use xlink:href="#DejaVuSans-6c" x="285.644531"/>
      <use xlink:href="#DejaVuSans-65" x="313.427734"/>
      <use xlink:href="#DejaVuSans-73" x="374.951172"/>
     </g>
    </g>
   </g>
   <g id="matplotlib.axis_2">
    <g id="ytick_1">
     <g id="line2d_5">
      <path d="M 57.6 279.025267 
L 414.72 279.025267 
" clip-path="url(#p8736aa6f1d)" style="fill: none; stroke: #b0b0b0; stroke-width: 0.8; stroke-linecap: square"/>
     </g>
     <g id="line2d_6">
      <defs>
       <path id="m815b6efcd2" d="M 0 0 
L -3.5 0 
" style="stroke: #000000; stroke-width: 0.8"/>
      </defs>
      <g>
       <use xlink:href="#m815b6efcd2" x="57.6" y="279.025267" style="stroke: #000000; stroke-width: 0.8"/>
      </g>
     </g>
     <g id="text_4">
      <!-- 0.25 -->
      <g transform="translate(28.334375 282.824486)scale(0.1 -0.1)">
       <defs>
        <path id="DejaVuSans-30" d="M 2034 4250 
Q 1547 4250 1301 3770 
Q 1056 3291 1056 2328 
Q 1056 1369 1301 889 
Q 1547 409 2034 409 
Q 2525 409 2770 889 
Q 3016 1369 3016 2328 
Q 3016 3291 2770 3770 
Q 2525 4250 2034 4250 
z
M 2034 4750 
Q 2819 4750 3233 4129 
Q 3647 3509 3647 2328 
Q 3647 1150 3233 529 
Q 2819 -91 2034 -91 
Q 1250 -91 836 529 
Q 422 1150 422 2328 
Q 422 3509 836 4129 
Q 1250 4750 2034 4750 
z
" transform="scale(0.015625)"/>
        <path id="DejaVuSans-2e" d="M 684 794 
L 1344 794 
L 1344 0 
L 684 0 
L 684 794 
z
" transform="scale(0.015625)"/>
        <path id="DejaVuSans-32" d="M 1228 531 
L 3431 531 
L 3431 0 
L 469 0 
L 469 531 
Q 828 903 1448 1529 
Q 2069 2156 2228 2338 
Q 2531 2678 2651 2914 
Q 2772 3150 2772 3378 
Q 2772 3750 2511 3984 
Q 2250 4219 1831 4219 
Q 1534 4219 1204 4116 
Q 875 4013 500 3803 
L 500 4441 
Q 881 4594 1212 4672 
Q 1544 4750 1819 4750 
Q 2544 4750 2975 4387 
Q 3406 4025 3406 3419 
Q 3406 3131 3298 2873 
Q 3191 2616 2906 2266 
Q 2828 2175 2409 1742 
Q 1991 1309 1228 531 
z
" transform="scale(0.015625)"/>
        <path id="DejaVuSans-35" d="M 691 4666 
L 3169 4666 
L 3169 4134 
L 1269 4134 
L 1269 2991 
Q 1406 3038 1543 3061 
Q 1681 3084 1819 3084 
Q 2600 3084 3056 2656 
Q 3513 2228 3513 1497 
Q 3513 744 3044 326 
Q 2575 -91 1722 -91 
Q 1428 -91 1123 -41 
Q 819 9 494 109 
L 494 744 
Q 775 591 1075 516 
Q 1375 441 1709 441 
Q 2250 441 2565 725 
Q 2881 1009 2881 1497 
Q 2881 1984 2565 2268 
Q 2250 2553 1709 2553 
Q 1456 2553 1204 2497 
Q 953 2441 691 2322 
L 691 4666 
z
" transform="scale(0.015625)"/>
       </defs>
       <use xlink:href="#DejaVuSans-30"/>
       <use xlink:href="#DejaVuSans-2e" x="63.623047"/>
       <use xlink:href="#DejaVuSans-32" x="95.410156"/>
       <use xlink:href="#DejaVuSans-35" x="159.033203"/>
      </g>
     </g>
    </g>
    <g id="ytick_2">
     <g id="line2d_7">
      <path d="M 57.6 247.834799 
L 414.72 247.834799 
" clip-path="url(#p8736aa6f1d)" style="fill: none; stroke: #b0b0b0; stroke-width: 0.8; stroke-linecap: square"/>
     </g>
     <g id="line2d_8">
      <g>
       <use xlink:href="#m815b6efcd2" x="57.6" y="247.834799" style="stroke: #000000; stroke-width: 0.8"/>
      </g>
     </g>
     <g id="text_5">
      <!-- 0.50 -->
      <g transform="translate(28.334375 251.634017)scale(0.1 -0.1)">
       <use xlink:href="#DejaVuSans-30"/>
       <use xlink:href="#DejaVuSans-2e" x="63.623047"/>
       <use xlink:href="#DejaVuSans-35" x="95.410156"/>
       <use xlink:href="#DejaVuSans-30" x="159.033203"/>
      </g>
     </g>
    </g>
    <g id="ytick_3">
     <g id="line2d_9">
      <path d="M 57.6 216.64433 
L 414.72 216.64433 
" clip-path="url(#p8736aa6f1d)" style="fill: none; stroke: #b0b0b0; stroke-width: 0.8; stroke-linecap: square"/>
     </g>
     <g id="line2d_10">
      <g>
       <use xlink:href="#m815b6efcd2" x="57.6" y="216.64433" style="stroke: #000000; stroke-width: 0.8"/>
      </g>
     </g>
     <g id="text_6">
      <!-- 0.75 -->
      <g transform="translate(28.334375 220.443549)scale(0.1 -0.1)">
       <defs>
        <path id="DejaVuSans-37" d="M 525 4666 
L 3525 4666 
L 3525 4397 
L 1831 0 
L 1172 0 
L 2766 4134 
L 525 4134 
L 525 4666 
z
" transform="scale(0.015625)"/>
       </defs>
       <use xlink:href="#DejaVuSans-30"/>
       <use xlink:href="#DejaVuSans-2e" x="63.623047"/>
       <use xlink:href="#DejaVuSans-37" x="95.410156"/>
       <use xlink:href="#DejaVuSans-35" x="159.033203"/>
      </g>
     </g>
    </g>
    <g id="ytick_4">
     <g id="line2d_11">
      <path d="M 57.6 185.453862 
L 414.72 185.453862 
" clip-path="url(#p8736aa6f1d)" style="fill: none; stroke: #b0b0b0; stroke-width: 0.8; stroke-linecap: square"/>
     </g>
     <g id="line2d_12">
      <g>
       <use xlink:href="#m815b6efcd2" x="57.6" y="185.453862" style="stroke: #000000; stroke-width: 0.8"/>
      </g>
     </g>
     <g id="text_7">
      <!-- 1.00 -->
      <g transform="translate(28.334375 189.253081)scale(0.1 -0.1)">
       <defs>
        <path id="DejaVuSans-31" d="M 794 531 
L 1825 531 
L 1825 4091 
L 703 3866 
L 703 4441 
L 1819 4666 
L 2450 4666 
L 2450 531 
L 3481 531 
L 3481 0 
L 794 0 
L 794 531 
z
" transform="scale(0.015625)"/>
       </defs>
       <use xlink:href="#DejaVuSans-31"/>
       <use xlink:href="#DejaVuSans-2e" x="63.623047"/>
       <use xlink:href="#DejaVuSans-30" x="95.410156"/>
       <use xlink:href="#DejaVuSans-30" x="159.033203"/>
      </g>
     </g>
    </g>
    <g id="ytick_5">
     <g id="line2d_13">
      <path d="M 57.6 154.263394 
L 414.72 154.263394 
" clip-path="url(#p8736aa6f1d)" style="fill: none; stroke: #b0b0b0; stroke-width: 0.8; stroke-linecap: square"/>
     </g>
     <g id="line2d_14">
      <g>
       <use xlink:href="#m815b6efcd2" x="57.6" y="154.263394" style="stroke: #000000; stroke-width: 0.8"/>
      </g>
     </g>
     <g id="text_8">
      <!-- 1.25 -->
      <g transform="translate(28.334375 158.062613)scale(0.1 -0.1)">
       <use xlink:href="#DejaVuSans-31"/>
       <use xlink:href="#DejaVuSans-2e" x="63.623047"/>
       <use xlink:href="#DejaVuSans-32" x="95.410156"/>
       <use xlink:href="#DejaVuSans-35" x="159.033203"/>
      </g>
     </g>
    </g>
    <g id="ytick_6">
     <g id="line2d_15">
      <path d="M 57.6 123.072926 
L 414.72 123.072926 
" clip-path="url(#p8736aa6f1d)" style="fill: none; stroke: #b0b0b0; stroke-width: 0.8; stroke-linecap: square"/>
     </g>
     <g id="line2d_16">
      <g>
       <use xlink:href="#m815b6efcd2" x="57.6" y="123.072926" style="stroke: #000000; stroke-width: 0.8"/>
      </g>
     </g>
     <g id="text_9">
      <!-- 1.50 -->
      <g transform="translate(28.334375 126.872144)scale(0.1 -0.1)">
       <use xlink:href="#DejaVuSans-31"/>
       <use xlink:href="#DejaVuSans-2e" x="63.623047"/>
       <use xlink:href="#DejaVuSans-35" x="95.410156"/>
       <use xlink:href="#DejaVuSans-30" x="159.033203"/>
      </g>
     </g>
    </g>
    <g id="ytick_7">
     <g id="line2d_17">
      <path d="M 57.6 91.882457 
L 414.72 91.882457 
" clip-path="url(#p8736aa6f1d)" style="fill: none; stroke: #b0b0b0; stroke-width: 0.8; stroke-linecap: square"/>
     </g>
     <g id="line2d_18">
      <g>
       <use xlink:href="#m815b6efcd2" x="57.6" y="91.882457" style="stroke: #000000; stroke-width: 0.8"/>
      </g>
     </g>
     <g id="text_10">
      <!-- 1.75 -->
      <g transform="translate(28.334375 95.681676)scale(0.1 -0.1)">
       <use xlink:href="#DejaVuSans-31"/>
       <use xlink:href="#DejaVuSans-2e" x="63.623047"/>
       <use xlink:href="#DejaVuSans-37" x="95.410156"/>
       <use xlink:href="#DejaVuSans-35" x="159.033203"/>
      </g>
     </g>
    </g>
    <g id="ytick_8">
     <g id="line2d_19">
      <path d="M 57.6 60.691989 
L 414.72 60.691989 
" clip-path="url(#p8736aa6f1d)" style="fill: none; stroke: #b0b0b0; stroke-width: 0.8; stroke-linecap: square"/>
     </g>
     <g id="line2d_20">
      <g>
       <use xlink:href="#m815b6efcd2" x="57.6" y="60.691989" style="stroke: #000000; stroke-width: 0.8"/>
      </g>
     </g>
     <g id="text_11">
      <!-- 2.00 -->
      <g transform="translate(28.334375 64.491208)scale(0.1 -0.1)">
       <use xlink:href="#DejaVuSans-32"/>
       <use xlink:href="#DejaVuSans-2e" x="63.623047"/>
       <use xlink:href="#DejaVuSans-30" x="95.410156"/>
       <use xlink:href="#DejaVuSans-30" x="159.033203"/>
      </g>
     </g>
    </g>
    <g id="text_12">
     <!-- Log10(RPPM) -->
     <g transform="translate(22.254687 207.542062)rotate(-90)scale(0.1 -0.1)">
      <defs>
       <path id="DejaVuSans-4c" d="M 628 4666 
L 1259 4666 
L 1259 531 
L 3531 531 
L 3531 0 
L 628 0 
L 628 4666 
z
" transform="scale(0.015625)"/>
       <path id="DejaVuSans-67" d="M 2906 1791 
Q 2906 2416 2648 2759 
Q 2391 3103 1925 3103 
Q 1463 3103 1205 2759 
Q 947 2416 947 1791 
Q 947 1169 1205 825 
Q 1463 481 1925 481 
Q 2391 481 2648 825 
Q 2906 1169 2906 1791 
z
M 3481 434 
Q 3481 -459 3084 -895 
Q 2688 -1331 1869 -1331 
Q 1566 -1331 1297 -1286 
Q 1028 -1241 775 -1147 
L 775 -588 
Q 1028 -725 1275 -790 
Q 1522 -856 1778 -856 
Q 2344 -856 2625 -561 
Q 2906 -266 2906 331 
L 2906 616 
Q 2728 306 2450 153 
Q 2172 0 1784 0 
Q 1141 0 747 490 
Q 353 981 353 1791 
Q 353 2603 747 3093 
Q 1141 3584 1784 3584 
Q 2172 3584 2450 3431 
Q 2728 3278 2906 2969 
L 2906 3500 
L 3481 3500 
L 3481 434 
z
" transform="scale(0.015625)"/>
       <path id="DejaVuSans-28" d="M 1984 4856 
Q 1566 4138 1362 3434 
Q 1159 2731 1159 2009 
Q 1159 1288 1364 580 
Q 1569 -128 1984 -844 
L 1484 -844 
Q 1016 -109 783 600 
Q 550 1309 550 2009 
Q 550 2706 781 3412 
Q 1013 4119 1484 4856 
L 1984 4856 
z
" transform="scale(0.015625)"/>
       <path id="DejaVuSans-52" d="M 2841 2188 
Q 3044 2119 3236 1894 
Q 3428 1669 3622 1275 
L 4263 0 
L 3584 0 
L 2988 1197 
Q 2756 1666 2539 1819 
Q 2322 1972 1947 1972 
L 1259 1972 
L 1259 0 
L 628 0 
L 628 4666 
L 2053 4666 
Q 2853 4666 3247 4331 
Q 3641 3997 3641 3322 
Q 3641 2881 3436 2590 
Q 3231 2300 2841 2188 
z
M 1259 4147 
L 1259 2491 
L 2053 2491 
Q 2509 2491 2742 2702 
Q 2975 2913 2975 3322 
Q 2975 3731 2742 3939 
Q 2509 4147 2053 4147 
L 1259 4147 
z
" transform="scale(0.015625)"/>
       <path id="DejaVuSans-50" d="M 1259 4147 
L 1259 2394 
L 2053 2394 
Q 2494 2394 2734 2622 
Q 2975 2850 2975 3272 
Q 2975 3691 2734 3919 
Q 2494 4147 2053 4147 
L 1259 4147 
z
M 628 4666 
L 2053 4666 
Q 2838 4666 3239 4311 
Q 3641 3956 3641 3272 
Q 3641 2581 3239 2228 
Q 2838 1875 2053 1875 
L 1259 1875 
L 1259 0 
L 628 0 
L 628 4666 
z
" transform="scale(0.015625)"/>
       <path id="DejaVuSans-4d" d="M 628 4666 
L 1569 4666 
L 2759 1491 
L 3956 4666 
L 4897 4666 
L 4897 0 
L 4281 0 
L 4281 4097 
L 3078 897 
L 2444 897 
L 1241 4097 
L 1241 0 
L 628 0 
L 628 4666 
z
" transform="scale(0.015625)"/>
       <path id="DejaVuSans-29" d="M 513 4856 
L 1013 4856 
Q 1481 4119 1714 3412 
Q 1947 2706 1947 2009 
Q 1947 1309 1714 600 
Q 1481 -109 1013 -844 
L 513 -844 
Q 928 -128 1133 580 
Q 1338 1288 1338 2009 
Q 1338 2731 1133 3434 
Q 928 4138 513 4856 
z
" transform="scale(0.015625)"/>
      </defs>
      <use xlink:href="#DejaVuSans-4c"/>
      <use xlink:href="#DejaVuSans-6f" x="53.962891"/>
      <use xlink:href="#DejaVuSans-67" x="115.144531"/>
      <use xlink:href="#DejaVuSans-31" x="178.621094"/>
      <use xlink:href="#DejaVuSans-30" x="242.244141"/>
      <use xlink:href="#DejaVuSans-28" x="305.867188"/>
      <use xlink:href="#DejaVuSans-52" x="344.880859"/>
      <use xlink:href="#DejaVuSans-50" x="414.363281"/>
      <use xlink:href="#DejaVuSans-50" x="474.666016"/>
      <use xlink:href="#DejaVuSans-4d" x="534.96875"/>
      <use xlink:href="#DejaVuSans-29" x="621.248047"/>
     </g>
    </g>
   </g>
   <g id="line2d_21">
    <path d="M 133.488 281.034911 
L 160.272 281.034911 
L 160.272 243.162327 
L 133.488 243.162327 
L 133.488 281.034911 
" clip-path="url(#p8736aa6f1d)" style="fill: none; stroke: #1f77b4; stroke-linecap: square"/>
   </g>
   <g id="line2d_22">
    <path d="M 146.88 281.034911 
L 146.88 295.488 
" clip-path="url(#p8736aa6f1d)" style="fill: none; stroke: #1f77b4; stroke-linecap: square"/>
   </g>
   <g id="line2d_23">
    <path d="M 146.88 243.162327 
L 146.88 186.410475 
" clip-path="url(#p8736aa6f1d)" style="fill: none; stroke: #1f77b4; stroke-linecap: square"/>
   </g>
   <g id="line2d_24">
    <path d="M 140.184 295.488 
L 153.576 295.488 
" clip-path="url(#p8736aa6f1d)" style="fill: none; stroke: #000000; stroke-linecap: square"/>
   </g>
   <g id="line2d_25">
    <path d="M 140.184 186.410475 
L 153.576 186.410475 
" clip-path="url(#p8736aa6f1d)" style="fill: none; stroke: #000000; stroke-linecap: square"/>
   </g>
   <g id="line2d_26">
    <defs>
     <path id="m3f1a823640" d="M 0 3 
C 0.795609 3 1.55874 2.683901 2.12132 2.12132 
C 2.683901 1.55874 3 0.795609 3 0 
C 3 -0.795609 2.683901 -1.55874 2.12132 -2.12132 
C 1.55874 -2.683901 0.795609 -3 0 -3 
C -0.795609 -3 -1.55874 -2.683901 -2.12132 -2.12132 
C -2.683901 -1.55874 -3 -0.795609 -3 0 
C -3 0.795609 -2.683901 1.55874 -2.12132 2.12132 
C -1.55874 2.683901 -0.795609 3 0 3 
z
" style="stroke: #000000"/>
    </defs>
    <g clip-path="url(#p8736aa6f1d)">
     <use xlink:href="#m3f1a823640" x="146.88" y="153.553183" style="fill-opacity: 0; stroke: #000000"/>
     <use xlink:href="#m3f1a823640" x="146.88" y="110.133434" style="fill-opacity: 0; stroke: #000000"/>
     <use xlink:href="#m3f1a823640" x="146.88" y="97.827652" style="fill-opacity: 0; stroke: #000000"/>
     <use xlink:href="#m3f1a823640" x="146.88" y="128.057316" style="fill-opacity: 0; stroke: #000000"/>
     <use xlink:href="#m3f1a823640" x="146.88" y="173.77832" style="fill-opacity: 0; stroke: #000000"/>
     <use xlink:href="#m3f1a823640" x="146.88" y="170.462631" style="fill-opacity: 0; stroke: #000000"/>
     <use xlink:href="#m3f1a823640" x="146.88" y="150.574728" style="fill-opacity: 0; stroke: #000000"/>
     <use xlink:href="#m3f1a823640" x="146.88" y="92.814526" style="fill-opacity: 0; stroke: #000000"/>
     <use xlink:href="#m3f1a823640" x="146.88" y="104.805272" style="fill-opacity: 0; stroke: #000000"/>
     <use xlink:href="#m3f1a823640" x="146.88" y="181.465021" style="fill-opacity: 0; stroke: #000000"/>
     <use xlink:href="#m3f1a823640" x="146.88" y="139.048597" style="fill-opacity: 0; stroke: #000000"/>
     <use xlink:href="#m3f1a823640" x="146.88" y="159.203096" style="fill-opacity: 0; stroke: #000000"/>
     <use xlink:href="#m3f1a823640" x="146.88" y="157.281949" style="fill-opacity: 0; stroke: #000000"/>
     <use xlink:href="#m3f1a823640" x="146.88" y="154.991322" style="fill-opacity: 0; stroke: #000000"/>
     <use xlink:href="#m3f1a823640" x="146.88" y="176.36047" style="fill-opacity: 0; stroke: #000000"/>
     <use xlink:href="#m3f1a823640" x="146.88" y="141.079122" style="fill-opacity: 0; stroke: #000000"/>
     <use xlink:href="#m3f1a823640" x="146.88" y="112.137779" style="fill-opacity: 0; stroke: #000000"/>
     <use xlink:href="#m3f1a823640" x="146.88" y="184.859954" style="fill-opacity: 0; stroke: #000000"/>
     <use xlink:href="#m3f1a823640" x="146.88" y="180.910435" style="fill-opacity: 0; stroke: #000000"/>
     <use xlink:href="#m3f1a823640" x="146.88" y="97.477355" style="fill-opacity: 0; stroke: #000000"/>
     <use xlink:href="#m3f1a823640" x="146.88" y="179.092595" style="fill-opacity: 0; stroke: #000000"/>
     <use xlink:href="#m3f1a823640" x="146.88" y="170.168235" style="fill-opacity: 0; stroke: #000000"/>
     <use xlink:href="#m3f1a823640" x="146.88" y="185.551633" style="fill-opacity: 0; stroke: #000000"/>
     <use xlink:href="#m3f1a823640" x="146.88" y="176.342216" style="fill-opacity: 0; stroke: #000000"/>
     <use xlink:href="#m3f1a823640" x="146.88" y="162.238199" style="fill-opacity: 0; stroke: #000000"/>
     <use xlink:href="#m3f1a823640" x="146.88" y="147.816856" style="fill-opacity: 0; stroke: #000000"/>
     <use xlink:href="#m3f1a823640" x="146.88" y="85.754955" style="fill-opacity: 0; stroke: #000000"/>
     <use xlink:href="#m3f1a823640" x="146.88" y="150.261659" style="fill-opacity: 0; stroke: #000000"/>
     <use xlink:href="#m3f1a823640" x="146.88" y="162.467439" style="fill-opacity: 0; stroke: #000000"/>
     <use xlink:href="#m3f1a823640" x="146.88" y="126.304941" style="fill-opacity: 0; stroke: #000000"/>
     <use xlink:href="#m3f1a823640" x="146.88" y="183.603167" style="fill-opacity: 0; stroke: #000000"/>
     <use xlink:href="#m3f1a823640" x="146.88" y="157.333499" style="fill-opacity: 0; stroke: #000000"/>
     <use xlink:href="#m3f1a823640" x="146.88" y="173.730578" style="fill-opacity: 0; stroke: #000000"/>
     <use xlink:href="#m3f1a823640" x="146.88" y="183.059505" style="fill-opacity: 0; stroke: #000000"/>
     <use xlink:href="#m3f1a823640" x="146.88" y="149.900195" style="fill-opacity: 0; stroke: #000000"/>
     <use xlink:href="#m3f1a823640" x="146.88" y="184.581519" style="fill-opacity: 0; stroke: #000000"/>
     <use xlink:href="#m3f1a823640" x="146.88" y="185.515061" style="fill-opacity: 0; stroke: #000000"/>
     <use xlink:href="#m3f1a823640" x="146.88" y="57.685335" style="fill-opacity: 0; stroke: #000000"/>
     <use xlink:href="#m3f1a823640" x="146.88" y="172.719396" style="fill-opacity: 0; stroke: #000000"/>
     <use xlink:href="#m3f1a823640" x="146.88" y="180.319868" style="fill-opacity: 0; stroke: #000000"/>
     <use xlink:href="#m3f1a823640" x="146.88" y="147.468643" style="fill-opacity: 0; stroke: #000000"/>
     <use xlink:href="#m3f1a823640" x="146.88" y="136.1821" style="fill-opacity: 0; stroke: #000000"/>
     <use xlink:href="#m3f1a823640" x="146.88" y="168.35256" style="fill-opacity: 0; stroke: #000000"/>
     <use xlink:href="#m3f1a823640" x="146.88" y="119.467758" style="fill-opacity: 0; stroke: #000000"/>
     <use xlink:href="#m3f1a823640" x="146.88" y="178.743849" style="fill-opacity: 0; stroke: #000000"/>
     <use xlink:href="#m3f1a823640" x="146.88" y="184.704213" style="fill-opacity: 0; stroke: #000000"/>
     <use xlink:href="#m3f1a823640" x="146.88" y="180.643569" style="fill-opacity: 0; stroke: #000000"/>
     <use xlink:href="#m3f1a823640" x="146.88" y="182.237887" style="fill-opacity: 0; stroke: #000000"/>
     <use xlink:href="#m3f1a823640" x="146.88" y="167.262933" style="fill-opacity: 0; stroke: #000000"/>
     <use xlink:href="#m3f1a823640" x="146.88" y="67.703589" style="fill-opacity: 0; stroke: #000000"/>
     <use xlink:href="#m3f1a823640" x="146.88" y="164.641378" style="fill-opacity: 0; stroke: #000000"/>
     <use xlink:href="#m3f1a823640" x="146.88" y="134.460447" style="fill-opacity: 0; stroke: #000000"/>
     <use xlink:href="#m3f1a823640" x="146.88" y="183.279352" style="fill-opacity: 0; stroke: #000000"/>
     <use xlink:href="#m3f1a823640" x="146.88" y="155.399079" style="fill-opacity: 0; stroke: #000000"/>
     <use xlink:href="#m3f1a823640" x="146.88" y="177.405869" style="fill-opacity: 0; stroke: #000000"/>
     <use xlink:href="#m3f1a823640" x="146.88" y="172.025139" style="fill-opacity: 0; stroke: #000000"/>
     <use xlink:href="#m3f1a823640" x="146.88" y="179.767575" style="fill-opacity: 0; stroke: #000000"/>
     <use xlink:href="#m3f1a823640" x="146.88" y="165.914857" style="fill-opacity: 0; stroke: #000000"/>
     <use xlink:href="#m3f1a823640" x="146.88" y="172.849392" style="fill-opacity: 0; stroke: #000000"/>
     <use xlink:href="#m3f1a823640" x="146.88" y="175.066586" style="fill-opacity: 0; stroke: #000000"/>
     <use xlink:href="#m3f1a823640" x="146.88" y="134.264412" style="fill-opacity: 0; stroke: #000000"/>
     <use xlink:href="#m3f1a823640" x="146.88" y="104.310176" style="fill-opacity: 0; stroke: #000000"/>
     <use xlink:href="#m3f1a823640" x="146.88" y="126.098146" style="fill-opacity: 0; stroke: #000000"/>
     <use xlink:href="#m3f1a823640" x="146.88" y="147.742381" style="fill-opacity: 0; stroke: #000000"/>
     <use xlink:href="#m3f1a823640" x="146.88" y="185.581253" style="fill-opacity: 0; stroke: #000000"/>
     <use xlink:href="#m3f1a823640" x="146.88" y="101.451277" style="fill-opacity: 0; stroke: #000000"/>
     <use xlink:href="#m3f1a823640" x="146.88" y="125.474222" style="fill-opacity: 0; stroke: #000000"/>
     <use xlink:href="#m3f1a823640" x="146.88" y="177.424376" style="fill-opacity: 0; stroke: #000000"/>
     <use xlink:href="#m3f1a823640" x="146.88" y="158.568544" style="fill-opacity: 0; stroke: #000000"/>
     <use xlink:href="#m3f1a823640" x="146.88" y="141.479487" style="fill-opacity: 0; stroke: #000000"/>
     <use xlink:href="#m3f1a823640" x="146.88" y="124.171635" style="fill-opacity: 0; stroke: #000000"/>
     <use xlink:href="#m3f1a823640" x="146.88" y="175.694183" style="fill-opacity: 0; stroke: #000000"/>
     <use xlink:href="#m3f1a823640" x="146.88" y="179.286193" style="fill-opacity: 0; stroke: #000000"/>
     <use xlink:href="#m3f1a823640" x="146.88" y="132.716194" style="fill-opacity: 0; stroke: #000000"/>
     <use xlink:href="#m3f1a823640" x="146.88" y="95.050974" style="fill-opacity: 0; stroke: #000000"/>
     <use xlink:href="#m3f1a823640" x="146.88" y="169.832807" style="fill-opacity: 0; stroke: #000000"/>
     <use xlink:href="#m3f1a823640" x="146.88" y="94.204517" style="fill-opacity: 0; stroke: #000000"/>
     <use xlink:href="#m3f1a823640" x="146.88" y="168.189238" style="fill-opacity: 0; stroke: #000000"/>
     <use xlink:href="#m3f1a823640" x="146.88" y="159.199171" style="fill-opacity: 0; stroke: #000000"/>
     <use xlink:href="#m3f1a823640" x="146.88" y="145.353025" style="fill-opacity: 0; stroke: #000000"/>
     <use xlink:href="#m3f1a823640" x="146.88" y="119.806057" style="fill-opacity: 0; stroke: #000000"/>
     <use xlink:href="#m3f1a823640" x="146.88" y="120.149443" style="fill-opacity: 0; stroke: #000000"/>
     <use xlink:href="#m3f1a823640" x="146.88" y="172.768385" style="fill-opacity: 0; stroke: #000000"/>
     <use xlink:href="#m3f1a823640" x="146.88" y="164.706204" style="fill-opacity: 0; stroke: #000000"/>
     <use xlink:href="#m3f1a823640" x="146.88" y="185.853325" style="fill-opacity: 0; stroke: #000000"/>
     <use xlink:href="#m3f1a823640" x="146.88" y="178.27833" style="fill-opacity: 0; stroke: #000000"/>
     <use xlink:href="#m3f1a823640" x="146.88" y="149.392515" style="fill-opacity: 0; stroke: #000000"/>
     <use xlink:href="#m3f1a823640" x="146.88" y="99.33358" style="fill-opacity: 0; stroke: #000000"/>
     <use xlink:href="#m3f1a823640" x="146.88" y="148.897033" style="fill-opacity: 0; stroke: #000000"/>
     <use xlink:href="#m3f1a823640" x="146.88" y="157.573133" style="fill-opacity: 0; stroke: #000000"/>
     <use xlink:href="#m3f1a823640" x="146.88" y="179.254516" style="fill-opacity: 0; stroke: #000000"/>
     <use xlink:href="#m3f1a823640" x="146.88" y="172.261804" style="fill-opacity: 0; stroke: #000000"/>
     <use xlink:href="#m3f1a823640" x="146.88" y="96.112328" style="fill-opacity: 0; stroke: #000000"/>
     <use xlink:href="#m3f1a823640" x="146.88" y="172.199575" style="fill-opacity: 0; stroke: #000000"/>
     <use xlink:href="#m3f1a823640" x="146.88" y="134.498704" style="fill-opacity: 0; stroke: #000000"/>
     <use xlink:href="#m3f1a823640" x="146.88" y="112.660889" style="fill-opacity: 0; stroke: #000000"/>
     <use xlink:href="#m3f1a823640" x="146.88" y="84.117644" style="fill-opacity: 0; stroke: #000000"/>
     <use xlink:href="#m3f1a823640" x="146.88" y="97.832834" style="fill-opacity: 0; stroke: #000000"/>
     <use xlink:href="#m3f1a823640" x="146.88" y="126.622264" style="fill-opacity: 0; stroke: #000000"/>
     <use xlink:href="#m3f1a823640" x="146.88" y="92.621387" style="fill-opacity: 0; stroke: #000000"/>
     <use xlink:href="#m3f1a823640" x="146.88" y="182.162019" style="fill-opacity: 0; stroke: #000000"/>
     <use xlink:href="#m3f1a823640" x="146.88" y="160.442851" style="fill-opacity: 0; stroke: #000000"/>
     <use xlink:href="#m3f1a823640" x="146.88" y="120.62255" style="fill-opacity: 0; stroke: #000000"/>
     <use xlink:href="#m3f1a823640" x="146.88" y="137.961814" style="fill-opacity: 0; stroke: #000000"/>
     <use xlink:href="#m3f1a823640" x="146.88" y="174.973527" style="fill-opacity: 0; stroke: #000000"/>
     <use xlink:href="#m3f1a823640" x="146.88" y="184.926425" style="fill-opacity: 0; stroke: #000000"/>
     <use xlink:href="#m3f1a823640" x="146.88" y="166.397814" style="fill-opacity: 0; stroke: #000000"/>
     <use xlink:href="#m3f1a823640" x="146.88" y="180.952101" style="fill-opacity: 0; stroke: #000000"/>
     <use xlink:href="#m3f1a823640" x="146.88" y="122.498816" style="fill-opacity: 0; stroke: #000000"/>
     <use xlink:href="#m3f1a823640" x="146.88" y="138.856216" style="fill-opacity: 0; stroke: #000000"/>
     <use xlink:href="#m3f1a823640" x="146.88" y="145.589823" style="fill-opacity: 0; stroke: #000000"/>
     <use xlink:href="#m3f1a823640" x="146.88" y="182.73601" style="fill-opacity: 0; stroke: #000000"/>
    </g>
   </g>
   <g id="line2d_27">
    <path d="M 312.048 272.300951 
L 338.832 272.300951 
L 338.832 229.681395 
L 312.048 229.681395 
L 312.048 272.300951 
" clip-path="url(#p8736aa6f1d)" style="fill: none; stroke: #1f77b4; stroke-linecap: square"/>
   </g>
   <g id="line2d_28">
    <path d="M 325.44 272.300951 
L 325.44 291.233517 
" clip-path="url(#p8736aa6f1d)" style="fill: none; stroke: #1f77b4; stroke-linecap: square"/>
   </g>
   <g id="line2d_29">
    <path d="M 325.44 229.681395 
L 325.44 166.050568 
" clip-path="url(#p8736aa6f1d)" style="fill: none; stroke: #1f77b4; stroke-linecap: square"/>
   </g>
   <g id="line2d_30">
    <path d="M 318.744 291.233517 
L 332.136 291.233517 
" clip-path="url(#p8736aa6f1d)" style="fill: none; stroke: #000000; stroke-linecap: square"/>
   </g>
   <g id="line2d_31">
    <path d="M 318.744 166.050568 
L 332.136 166.050568 
" clip-path="url(#p8736aa6f1d)" style="fill: none; stroke: #000000; stroke-linecap: square"/>
   </g>
   <g id="line2d_32">
    <g clip-path="url(#p8736aa6f1d)">
     <use xlink:href="#m3f1a823640" x="325.44" y="162.949421" style="fill-opacity: 0; stroke: #000000"/>
     <use xlink:href="#m3f1a823640" x="325.44" y="68.860558" style="fill-opacity: 0; stroke: #000000"/>
     <use xlink:href="#m3f1a823640" x="325.44" y="132.712803" style="fill-opacity: 0; stroke: #000000"/>
     <use xlink:href="#m3f1a823640" x="325.44" y="128.208781" style="fill-opacity: 0; stroke: #000000"/>
     <use xlink:href="#m3f1a823640" x="325.44" y="120.008702" style="fill-opacity: 0; stroke: #000000"/>
     <use xlink:href="#m3f1a823640" x="325.44" y="124.196477" style="fill-opacity: 0; stroke: #000000"/>
     <use xlink:href="#m3f1a823640" x="325.44" y="131.557954" style="fill-opacity: 0; stroke: #000000"/>
     <use xlink:href="#m3f1a823640" x="325.44" y="160.765283" style="fill-opacity: 0; stroke: #000000"/>
     <use xlink:href="#m3f1a823640" x="325.44" y="139.331923" style="fill-opacity: 0; stroke: #000000"/>
     <use xlink:href="#m3f1a823640" x="325.44" y="103.614543" style="fill-opacity: 0; stroke: #000000"/>
     <use xlink:href="#m3f1a823640" x="325.44" y="163.67111" style="fill-opacity: 0; stroke: #000000"/>
     <use xlink:href="#m3f1a823640" x="325.44" y="53.568" style="fill-opacity: 0; stroke: #000000"/>
     <use xlink:href="#m3f1a823640" x="325.44" y="157.103794" style="fill-opacity: 0; stroke: #000000"/>
     <use xlink:href="#m3f1a823640" x="325.44" y="142.009457" style="fill-opacity: 0; stroke: #000000"/>
     <use xlink:href="#m3f1a823640" x="325.44" y="149.761484" style="fill-opacity: 0; stroke: #000000"/>
     <use xlink:href="#m3f1a823640" x="325.44" y="149.050596" style="fill-opacity: 0; stroke: #000000"/>
     <use xlink:href="#m3f1a823640" x="325.44" y="143.249006" style="fill-opacity: 0; stroke: #000000"/>
     <use xlink:href="#m3f1a823640" x="325.44" y="152.523119" style="fill-opacity: 0; stroke: #000000"/>
     <use xlink:href="#m3f1a823640" x="325.44" y="121.543919" style="fill-opacity: 0; stroke: #000000"/>
     <use xlink:href="#m3f1a823640" x="325.44" y="155.315363" style="fill-opacity: 0; stroke: #000000"/>
     <use xlink:href="#m3f1a823640" x="325.44" y="85.16226" style="fill-opacity: 0; stroke: #000000"/>
     <use xlink:href="#m3f1a823640" x="325.44" y="130.093274" style="fill-opacity: 0; stroke: #000000"/>
     <use xlink:href="#m3f1a823640" x="325.44" y="88.911128" style="fill-opacity: 0; stroke: #000000"/>
     <use xlink:href="#m3f1a823640" x="325.44" y="127.145502" style="fill-opacity: 0; stroke: #000000"/>
     <use xlink:href="#m3f1a823640" x="325.44" y="143.510284" style="fill-opacity: 0; stroke: #000000"/>
     <use xlink:href="#m3f1a823640" x="325.44" y="114.145452" style="fill-opacity: 0; stroke: #000000"/>
     <use xlink:href="#m3f1a823640" x="325.44" y="80.06407" style="fill-opacity: 0; stroke: #000000"/>
     <use xlink:href="#m3f1a823640" x="325.44" y="133.180942" style="fill-opacity: 0; stroke: #000000"/>
     <use xlink:href="#m3f1a823640" x="325.44" y="146.147735" style="fill-opacity: 0; stroke: #000000"/>
     <use xlink:href="#m3f1a823640" x="325.44" y="120.666944" style="fill-opacity: 0; stroke: #000000"/>
     <use xlink:href="#m3f1a823640" x="325.44" y="145.119962" style="fill-opacity: 0; stroke: #000000"/>
     <use xlink:href="#m3f1a823640" x="325.44" y="130.913988" style="fill-opacity: 0; stroke: #000000"/>
     <use xlink:href="#m3f1a823640" x="325.44" y="129.545268" style="fill-opacity: 0; stroke: #000000"/>
     <use xlink:href="#m3f1a823640" x="325.44" y="124.032263" style="fill-opacity: 0; stroke: #000000"/>
     <use xlink:href="#m3f1a823640" x="325.44" y="146.937865" style="fill-opacity: 0; stroke: #000000"/>
     <use xlink:href="#m3f1a823640" x="325.44" y="128.519168" style="fill-opacity: 0; stroke: #000000"/>
     <use xlink:href="#m3f1a823640" x="325.44" y="118.406119" style="fill-opacity: 0; stroke: #000000"/>
     <use xlink:href="#m3f1a823640" x="325.44" y="130.593631" style="fill-opacity: 0; stroke: #000000"/>
     <use xlink:href="#m3f1a823640" x="325.44" y="90.435268" style="fill-opacity: 0; stroke: #000000"/>
     <use xlink:href="#m3f1a823640" x="325.44" y="76.335762" style="fill-opacity: 0; stroke: #000000"/>
     <use xlink:href="#m3f1a823640" x="325.44" y="83.303374" style="fill-opacity: 0; stroke: #000000"/>
     <use xlink:href="#m3f1a823640" x="325.44" y="149.479051" style="fill-opacity: 0; stroke: #000000"/>
     <use xlink:href="#m3f1a823640" x="325.44" y="107.684398" style="fill-opacity: 0; stroke: #000000"/>
     <use xlink:href="#m3f1a823640" x="325.44" y="148.521414" style="fill-opacity: 0; stroke: #000000"/>
     <use xlink:href="#m3f1a823640" x="325.44" y="149.593689" style="fill-opacity: 0; stroke: #000000"/>
     <use xlink:href="#m3f1a823640" x="325.44" y="156.051107" style="fill-opacity: 0; stroke: #000000"/>
     <use xlink:href="#m3f1a823640" x="325.44" y="118.963327" style="fill-opacity: 0; stroke: #000000"/>
     <use xlink:href="#m3f1a823640" x="325.44" y="164.183641" style="fill-opacity: 0; stroke: #000000"/>
     <use xlink:href="#m3f1a823640" x="325.44" y="104.282956" style="fill-opacity: 0; stroke: #000000"/>
     <use xlink:href="#m3f1a823640" x="325.44" y="80.394176" style="fill-opacity: 0; stroke: #000000"/>
     <use xlink:href="#m3f1a823640" x="325.44" y="148.266339" style="fill-opacity: 0; stroke: #000000"/>
     <use xlink:href="#m3f1a823640" x="325.44" y="142.876994" style="fill-opacity: 0; stroke: #000000"/>
     <use xlink:href="#m3f1a823640" x="325.44" y="140.173517" style="fill-opacity: 0; stroke: #000000"/>
     <use xlink:href="#m3f1a823640" x="325.44" y="134.751669" style="fill-opacity: 0; stroke: #000000"/>
     <use xlink:href="#m3f1a823640" x="325.44" y="160.376016" style="fill-opacity: 0; stroke: #000000"/>
     <use xlink:href="#m3f1a823640" x="325.44" y="130.569593" style="fill-opacity: 0; stroke: #000000"/>
     <use xlink:href="#m3f1a823640" x="325.44" y="67.5571" style="fill-opacity: 0; stroke: #000000"/>
     <use xlink:href="#m3f1a823640" x="325.44" y="147.214501" style="fill-opacity: 0; stroke: #000000"/>
     <use xlink:href="#m3f1a823640" x="325.44" y="159.258704" style="fill-opacity: 0; stroke: #000000"/>
     <use xlink:href="#m3f1a823640" x="325.44" y="135.868303" style="fill-opacity: 0; stroke: #000000"/>
     <use xlink:href="#m3f1a823640" x="325.44" y="106.833312" style="fill-opacity: 0; stroke: #000000"/>
     <use xlink:href="#m3f1a823640" x="325.44" y="139.952433" style="fill-opacity: 0; stroke: #000000"/>
     <use xlink:href="#m3f1a823640" x="325.44" y="103.387344" style="fill-opacity: 0; stroke: #000000"/>
     <use xlink:href="#m3f1a823640" x="325.44" y="157.500012" style="fill-opacity: 0; stroke: #000000"/>
     <use xlink:href="#m3f1a823640" x="325.44" y="126.054867" style="fill-opacity: 0; stroke: #000000"/>
     <use xlink:href="#m3f1a823640" x="325.44" y="159.75939" style="fill-opacity: 0; stroke: #000000"/>
     <use xlink:href="#m3f1a823640" x="325.44" y="138.804134" style="fill-opacity: 0; stroke: #000000"/>
     <use xlink:href="#m3f1a823640" x="325.44" y="162.914668" style="fill-opacity: 0; stroke: #000000"/>
     <use xlink:href="#m3f1a823640" x="325.44" y="161.327707" style="fill-opacity: 0; stroke: #000000"/>
     <use xlink:href="#m3f1a823640" x="325.44" y="164.829488" style="fill-opacity: 0; stroke: #000000"/>
     <use xlink:href="#m3f1a823640" x="325.44" y="122.218374" style="fill-opacity: 0; stroke: #000000"/>
     <use xlink:href="#m3f1a823640" x="325.44" y="126.67232" style="fill-opacity: 0; stroke: #000000"/>
     <use xlink:href="#m3f1a823640" x="325.44" y="123.396823" style="fill-opacity: 0; stroke: #000000"/>
     <use xlink:href="#m3f1a823640" x="325.44" y="129.766161" style="fill-opacity: 0; stroke: #000000"/>
     <use xlink:href="#m3f1a823640" x="325.44" y="128.21028" style="fill-opacity: 0; stroke: #000000"/>
     <use xlink:href="#m3f1a823640" x="325.44" y="89.56208" style="fill-opacity: 0; stroke: #000000"/>
     <use xlink:href="#m3f1a823640" x="325.44" y="159.021073" style="fill-opacity: 0; stroke: #000000"/>
     <use xlink:href="#m3f1a823640" x="325.44" y="114.161985" style="fill-opacity: 0; stroke: #000000"/>
     <use xlink:href="#m3f1a823640" x="325.44" y="148.980842" style="fill-opacity: 0; stroke: #000000"/>
     <use xlink:href="#m3f1a823640" x="325.44" y="163.569558" style="fill-opacity: 0; stroke: #000000"/>
     <use xlink:href="#m3f1a823640" x="325.44" y="124.246554" style="fill-opacity: 0; stroke: #000000"/>
     <use xlink:href="#m3f1a823640" x="325.44" y="103.894731" style="fill-opacity: 0; stroke: #000000"/>
     <use xlink:href="#m3f1a823640" x="325.44" y="123.336606" style="fill-opacity: 0; stroke: #000000"/>
     <use xlink:href="#m3f1a823640" x="325.44" y="160.134665" style="fill-opacity: 0; stroke: #000000"/>
     <use xlink:href="#m3f1a823640" x="325.44" y="108.239578" style="fill-opacity: 0; stroke: #000000"/>
     <use xlink:href="#m3f1a823640" x="325.44" y="161.306126" style="fill-opacity: 0; stroke: #000000"/>
     <use xlink:href="#m3f1a823640" x="325.44" y="154.892556" style="fill-opacity: 0; stroke: #000000"/>
     <use xlink:href="#m3f1a823640" x="325.44" y="135.782627" style="fill-opacity: 0; stroke: #000000"/>
     <use xlink:href="#m3f1a823640" x="325.44" y="111.824197" style="fill-opacity: 0; stroke: #000000"/>
     <use xlink:href="#m3f1a823640" x="325.44" y="159.613514" style="fill-opacity: 0; stroke: #000000"/>
     <use xlink:href="#m3f1a823640" x="325.44" y="71.494146" style="fill-opacity: 0; stroke: #000000"/>
     <use xlink:href="#m3f1a823640" x="325.44" y="148.476427" style="fill-opacity: 0; stroke: #000000"/>
     <use xlink:href="#m3f1a823640" x="325.44" y="90.689459" style="fill-opacity: 0; stroke: #000000"/>
     <use xlink:href="#m3f1a823640" x="325.44" y="93.18726" style="fill-opacity: 0; stroke: #000000"/>
     <use xlink:href="#m3f1a823640" x="325.44" y="107.096109" style="fill-opacity: 0; stroke: #000000"/>
     <use xlink:href="#m3f1a823640" x="325.44" y="153.968861" style="fill-opacity: 0; stroke: #000000"/>
     <use xlink:href="#m3f1a823640" x="325.44" y="151.625734" style="fill-opacity: 0; stroke: #000000"/>
     <use xlink:href="#m3f1a823640" x="325.44" y="113.326289" style="fill-opacity: 0; stroke: #000000"/>
     <use xlink:href="#m3f1a823640" x="325.44" y="133.551602" style="fill-opacity: 0; stroke: #000000"/>
     <use xlink:href="#m3f1a823640" x="325.44" y="138.478499" style="fill-opacity: 0; stroke: #000000"/>
    </g>
   </g>
   <g id="line2d_33">
    <path d="M 133.488 267.034041 
L 160.272 267.034041 
" clip-path="url(#p8736aa6f1d)" style="fill: none; stroke: #2ca02c; stroke-linecap: square"/>
   </g>
   <g id="line2d_34">
    <path d="M 312.048 257.105381 
L 338.832 257.105381 
" clip-path="url(#p8736aa6f1d)" style="fill: none; stroke: #2ca02c; stroke-linecap: square"/>
   </g>
   <g id="patch_3">
    <path d="M 57.6 307.584 
L 57.6 41.472 
" style="fill: none; stroke: #000000; stroke-width: 0.8; stroke-linejoin: miter; stroke-linecap: square"/>
   </g>
   <g id="patch_4">
    <path d="M 414.72 307.584 
L 414.72 41.472 
" style="fill: none; stroke: #000000; stroke-width: 0.8; stroke-linejoin: miter; stroke-linecap: square"/>
   </g>
   <g id="patch_5">
    <path d="M 57.6 307.584 
L 414.72 307.584 
" style="fill: none; stroke: #000000; stroke-width: 0.8; stroke-linejoin: miter; stroke-linecap: square"/>
   </g>
   <g id="patch_6">
    <path d="M 57.6 41.472 
L 414.72 41.472 
" style="fill: none; stroke: #000000; stroke-width: 0.8; stroke-linejoin: miter; stroke-linecap: square"/>
   </g>
  </g>
 </g>
 <defs>
  <clipPath id="p8736aa6f1d">
   <rect x="57.6" y="41.472" width="357.12" height="266.112"/>
  </clipPath>
 </defs>
</svg>
